<mxfile host="app.diagrams.net" modified="2024-03-08T05:48:43.489Z" agent="Mozilla/5.0 (Windows NT 10.0; Win64; x64) AppleWebKit/537.36 (KHTML, like Gecko) Chrome/122.0.0.0 Safari/537.36 Edg/122.0.0.0" etag="XroQBvhl40S3iZ75Aru1" version="24.0.2" type="github">
  <diagram name="Page-1" id="nR9Tumpl0AKBtcU81SDL">
    <mxGraphModel dx="1386" dy="769" grid="1" gridSize="10" guides="1" tooltips="1" connect="1" arrows="1" fold="1" page="1" pageScale="1" pageWidth="850" pageHeight="1100" math="0" shadow="0">
      <root>
        <mxCell id="0" />
        <mxCell id="1" parent="0" />
        <mxCell id="CvrxwpYhx4rwZc_fmD3A-1" value="start UDS server instance" style="strokeWidth=2;html=1;shape=mxgraph.flowchart.start_2;whiteSpace=wrap;" vertex="1" parent="1">
          <mxGeometry x="1" y="160" width="80" height="80" as="geometry" />
        </mxCell>
        <mxCell id="CvrxwpYhx4rwZc_fmD3A-3" style="edgeStyle=orthogonalEdgeStyle;rounded=0;orthogonalLoop=1;jettySize=auto;html=1;exitX=1;exitY=0.5;exitDx=0;exitDy=0;exitPerimeter=0;entryX=0;entryY=0.5;entryDx=0;entryDy=0;" edge="1" parent="1" source="CvrxwpYhx4rwZc_fmD3A-1" target="CvrxwpYhx4rwZc_fmD3A-4">
          <mxGeometry relative="1" as="geometry">
            <mxPoint x="160" y="210" as="targetPoint" />
          </mxGeometry>
        </mxCell>
        <mxCell id="CvrxwpYhx4rwZc_fmD3A-6" style="edgeStyle=orthogonalEdgeStyle;rounded=0;orthogonalLoop=1;jettySize=auto;html=1;exitX=1;exitY=0.5;exitDx=0;exitDy=0;entryX=0;entryY=0.5;entryDx=0;entryDy=0;" edge="1" parent="1" source="CvrxwpYhx4rwZc_fmD3A-4" target="CvrxwpYhx4rwZc_fmD3A-5">
          <mxGeometry relative="1" as="geometry" />
        </mxCell>
        <mxCell id="CvrxwpYhx4rwZc_fmD3A-27" style="edgeStyle=orthogonalEdgeStyle;rounded=0;orthogonalLoop=1;jettySize=auto;html=1;exitX=1;exitY=0.25;exitDx=0;exitDy=0;curved=1;entryX=0;entryY=0.25;entryDx=0;entryDy=0;" edge="1" parent="1" source="CvrxwpYhx4rwZc_fmD3A-4" target="CvrxwpYhx4rwZc_fmD3A-4">
          <mxGeometry relative="1" as="geometry">
            <mxPoint x="150" y="80" as="targetPoint" />
            <Array as="points">
              <mxPoint x="310" y="180" />
              <mxPoint x="310" y="80" />
              <mxPoint x="120" y="80" />
              <mxPoint x="120" y="180" />
            </Array>
          </mxGeometry>
        </mxCell>
        <mxCell id="CvrxwpYhx4rwZc_fmD3A-28" value="loop" style="edgeLabel;html=1;align=center;verticalAlign=middle;resizable=0;points=[];" vertex="1" connectable="0" parent="CvrxwpYhx4rwZc_fmD3A-27">
          <mxGeometry x="0.0063" relative="1" as="geometry">
            <mxPoint as="offset" />
          </mxGeometry>
        </mxCell>
        <mxCell id="CvrxwpYhx4rwZc_fmD3A-4" value="wait for diagnostic request messages" style="rounded=1;whiteSpace=wrap;html=1;absoluteArcSize=1;arcSize=14;strokeWidth=2;" vertex="1" parent="1">
          <mxGeometry x="160" y="160" width="120" height="80" as="geometry" />
        </mxCell>
        <mxCell id="CvrxwpYhx4rwZc_fmD3A-23" style="edgeStyle=orthogonalEdgeStyle;rounded=0;orthogonalLoop=1;jettySize=auto;html=1;exitX=1;exitY=0.5;exitDx=0;exitDy=0;entryX=0;entryY=0.5;entryDx=0;entryDy=0;" edge="1" parent="1" source="CvrxwpYhx4rwZc_fmD3A-5" target="CvrxwpYhx4rwZc_fmD3A-11">
          <mxGeometry relative="1" as="geometry" />
        </mxCell>
        <mxCell id="CvrxwpYhx4rwZc_fmD3A-25" value="server busy" style="edgeLabel;html=1;align=center;verticalAlign=middle;resizable=0;points=[];" vertex="1" connectable="0" parent="CvrxwpYhx4rwZc_fmD3A-23">
          <mxGeometry x="-0.2387" y="2" relative="1" as="geometry">
            <mxPoint as="offset" />
          </mxGeometry>
        </mxCell>
        <mxCell id="CvrxwpYhx4rwZc_fmD3A-31" value="" style="edgeStyle=orthogonalEdgeStyle;rounded=0;orthogonalLoop=1;jettySize=auto;html=1;" edge="1" parent="1" source="CvrxwpYhx4rwZc_fmD3A-5" target="CvrxwpYhx4rwZc_fmD3A-30">
          <mxGeometry relative="1" as="geometry" />
        </mxCell>
        <mxCell id="CvrxwpYhx4rwZc_fmD3A-32" value="ready" style="edgeLabel;html=1;align=center;verticalAlign=middle;resizable=0;points=[];" vertex="1" connectable="0" parent="CvrxwpYhx4rwZc_fmD3A-31">
          <mxGeometry x="-0.1778" y="-1" relative="1" as="geometry">
            <mxPoint as="offset" />
          </mxGeometry>
        </mxCell>
        <mxCell id="CvrxwpYhx4rwZc_fmD3A-5" value="process received request" style="rounded=1;whiteSpace=wrap;html=1;absoluteArcSize=1;arcSize=14;strokeWidth=2;" vertex="1" parent="1">
          <mxGeometry x="365" y="160" width="120" height="80" as="geometry" />
        </mxCell>
        <mxCell id="CvrxwpYhx4rwZc_fmD3A-22" style="edgeStyle=orthogonalEdgeStyle;rounded=0;orthogonalLoop=1;jettySize=auto;html=1;exitX=1;exitY=0.5;exitDx=0;exitDy=0;entryX=0;entryY=0.5;entryDx=0;entryDy=0;curved=1;" edge="1" parent="1" source="CvrxwpYhx4rwZc_fmD3A-11" target="CvrxwpYhx4rwZc_fmD3A-12">
          <mxGeometry relative="1" as="geometry" />
        </mxCell>
        <mxCell id="CvrxwpYhx4rwZc_fmD3A-11" value="send server busy response to client" style="rounded=1;whiteSpace=wrap;html=1;absoluteArcSize=1;arcSize=14;strokeWidth=2;" vertex="1" parent="1">
          <mxGeometry x="600" y="160" width="120" height="80" as="geometry" />
        </mxCell>
        <mxCell id="CvrxwpYhx4rwZc_fmD3A-13" style="edgeStyle=orthogonalEdgeStyle;rounded=0;orthogonalLoop=1;jettySize=auto;html=1;exitX=0.425;exitY=-0.037;exitDx=0;exitDy=0;entryX=0.5;entryY=0;entryDx=0;entryDy=0;exitPerimeter=0;elbow=vertical;curved=1;" edge="1" parent="1" source="CvrxwpYhx4rwZc_fmD3A-16" target="CvrxwpYhx4rwZc_fmD3A-5">
          <mxGeometry relative="1" as="geometry">
            <Array as="points">
              <mxPoint x="1051" y="70" />
              <mxPoint x="425" y="70" />
            </Array>
          </mxGeometry>
        </mxCell>
        <mxCell id="CvrxwpYhx4rwZc_fmD3A-14" value="process next request" style="edgeLabel;html=1;align=center;verticalAlign=middle;resizable=0;points=[];" vertex="1" connectable="0" parent="CvrxwpYhx4rwZc_fmD3A-13">
          <mxGeometry x="-0.2395" relative="1" as="geometry">
            <mxPoint x="-73" as="offset" />
          </mxGeometry>
        </mxCell>
        <mxCell id="CvrxwpYhx4rwZc_fmD3A-26" value="no" style="edgeLabel;html=1;align=center;verticalAlign=middle;resizable=0;points=[];" vertex="1" connectable="0" parent="CvrxwpYhx4rwZc_fmD3A-13">
          <mxGeometry x="-0.8903" relative="1" as="geometry">
            <mxPoint x="-11" y="7" as="offset" />
          </mxGeometry>
        </mxCell>
        <mxCell id="CvrxwpYhx4rwZc_fmD3A-17" style="edgeStyle=orthogonalEdgeStyle;rounded=0;orthogonalLoop=1;jettySize=auto;html=1;exitX=1;exitY=0.5;exitDx=0;exitDy=0;entryX=0;entryY=0.5;entryDx=0;entryDy=0;" edge="1" parent="1" source="CvrxwpYhx4rwZc_fmD3A-12" target="CvrxwpYhx4rwZc_fmD3A-16">
          <mxGeometry relative="1" as="geometry" />
        </mxCell>
        <mxCell id="CvrxwpYhx4rwZc_fmD3A-12" value="send message" style="rounded=1;whiteSpace=wrap;html=1;absoluteArcSize=1;arcSize=14;strokeWidth=2;" vertex="1" parent="1">
          <mxGeometry x="800" y="160" width="120" height="80" as="geometry" />
        </mxCell>
        <mxCell id="CvrxwpYhx4rwZc_fmD3A-15" value="shutdown UDS server instance" style="strokeWidth=2;html=1;shape=mxgraph.flowchart.terminator;whiteSpace=wrap;" vertex="1" parent="1">
          <mxGeometry x="1200" y="170" width="100" height="60" as="geometry" />
        </mxCell>
        <mxCell id="CvrxwpYhx4rwZc_fmD3A-18" style="edgeStyle=orthogonalEdgeStyle;rounded=0;orthogonalLoop=1;jettySize=auto;html=1;exitX=1;exitY=0.5;exitDx=0;exitDy=0;entryX=0;entryY=0.5;entryDx=0;entryDy=0;entryPerimeter=0;" edge="1" parent="1" source="CvrxwpYhx4rwZc_fmD3A-16" target="CvrxwpYhx4rwZc_fmD3A-15">
          <mxGeometry relative="1" as="geometry" />
        </mxCell>
        <mxCell id="CvrxwpYhx4rwZc_fmD3A-19" value="yes" style="edgeLabel;html=1;align=center;verticalAlign=middle;resizable=0;points=[];" vertex="1" connectable="0" parent="CvrxwpYhx4rwZc_fmD3A-18">
          <mxGeometry x="-0.325" y="3" relative="1" as="geometry">
            <mxPoint as="offset" />
          </mxGeometry>
        </mxCell>
        <mxCell id="CvrxwpYhx4rwZc_fmD3A-16" value="check user stop request" style="rounded=1;whiteSpace=wrap;html=1;absoluteArcSize=1;arcSize=14;strokeWidth=2;" vertex="1" parent="1">
          <mxGeometry x="1000" y="160" width="120" height="80" as="geometry" />
        </mxCell>
        <mxCell id="CvrxwpYhx4rwZc_fmD3A-34" style="edgeStyle=orthogonalEdgeStyle;rounded=0;orthogonalLoop=1;jettySize=auto;html=1;exitX=1;exitY=0.5;exitDx=0;exitDy=0;entryX=0.5;entryY=1;entryDx=0;entryDy=0;curved=1;" edge="1" parent="1" source="CvrxwpYhx4rwZc_fmD3A-30" target="CvrxwpYhx4rwZc_fmD3A-12">
          <mxGeometry relative="1" as="geometry" />
        </mxCell>
        <mxCell id="CvrxwpYhx4rwZc_fmD3A-30" value="calculate request response" style="whiteSpace=wrap;html=1;rounded=1;arcSize=14;strokeWidth=2;" vertex="1" parent="1">
          <mxGeometry x="365" y="330" width="120" height="60" as="geometry" />
        </mxCell>
      </root>
    </mxGraphModel>
  </diagram>
</mxfile>
